<svg width="100" height="115" viewBox="0 0 102 119" fill="none" xmlns="http://www.w3.org/2000/svg">
<path d="M101 10.9259C101 2.88001 91.2483 -1.12281 85.5955 4.60277L50.4506 40.2V90.287L75.7253 66.913V44.0117C75.7253 41.5753 76.713 39.243 78.4628 37.5478L101 15.713V10.9259Z" fill="#59886b"/>
<path d="M25.1758 66.913V88.7014C25.1758 91.1377 26.1636 93.47 27.9134 95.1653L50.4506 117V90.287L25.1758 66.913Z" fill="#59886b"/>
<path d="M50.4506 117L72.9877 95.1653C74.7375 93.47 75.7253 91.1377 75.7253 88.7014V66.913L50.4506 90.287V117Z" fill="#59886b"/>
<path d="M75.7253 66.913L98.2624 45.0783C100.012 43.383 101 41.0508 101 38.6144V15.713L78.4628 37.5478C76.713 39.243 75.7253 41.5753 75.7253 44.0117V66.913Z" fill="#59886b"/>
<path d="M50.4506 40.2L16.4045 5.71581C10.7517 -0.0097723 1 3.99304 1 12.039V16.2696L22.5072 37.5585C24.215 39.2489 25.1758 41.552 25.1758 43.9548V66.913L50.4506 90.287V40.2Z" fill="#59886b"/>
<path d="M1 38.7318C1 41.0988 1.93248 43.3706 3.59548 45.055L25.1758 66.913V43.9548C25.1758 41.552 24.215 39.2489 22.5072 37.5585L1 16.2696V38.7318Z" fill="#59886b"/>
<path d="M50.4505 40.2L85.5955 4.60277C91.2483 -1.12281 101 2.88001 101 10.9259V15.713M50.4505 40.2L16.4045 5.71581C10.7517 -0.00977254 1 3.99304 1 12.039V16.2696M50.4505 40.2V90.287M25.1758 66.913L3.59548 45.055C1.93248 43.3706 1 41.0988 1 38.7318V16.2696M25.1758 66.913V88.7014C25.1758 91.1377 26.1636 93.47 27.9134 95.1653L50.4505 117M25.1758 66.913L50.4505 90.287M25.1758 66.913V43.9548C25.1758 41.552 24.215 39.2489 22.5072 37.5585L1 16.2696M50.4505 117L72.9877 95.1653C74.7375 93.47 75.7253 91.1377 75.7253 88.7014V66.913M50.4505 117V90.287M75.7253 66.913L98.2624 45.0783C100.012 43.383 101 41.0508 101 38.6144V15.713M75.7253 66.913L50.4505 90.287M75.7253 66.913V44.0117C75.7253 41.5753 76.713 39.243 78.4628 37.5478L101 15.713" stroke="white" stroke-width="5"/>
</svg>
